<svg width="67" height="61" viewBox="0 0 67 61" fill="none" xmlns="http://www.w3.org/2000/svg">
<path d="M35.8531 10.6882C35.8531 11.3141 35.3462 11.8215 34.7198 11.8215H14.836C14.2101 11.8215 13.7027 11.3141 13.7027 10.6882C13.7027 10.0623 14.2101 9.55487 14.836 9.55487H34.7198C35.3462 9.55487 35.8531 10.0623 35.8531 10.6882ZM34.7198 17.4882H14.836C14.2101 17.4882 13.7027 17.9957 13.7027 18.6215C13.7027 19.2474 14.2101 19.7549 14.836 19.7549H34.7198C35.3462 19.7549 35.8531 19.2474 35.8531 18.6215C35.8531 17.9957 35.3462 17.4882 34.7198 17.4882ZM66.9333 10.6667V14.0667C66.9333 17.4296 64.4777 20.2221 61.2667 20.7644V28.8133C61.2667 38.8048 53.1384 46.9333 43.1467 46.9333H39.3449C39.3027 46.9333 39.267 46.9138 39.2259 46.9093L37.8534 58.2667H44.2667C44.8931 58.2667 45.4 58.7741 45.4 59.4C45.4 60.0259 44.8931 60.5333 44.2667 60.5333H5.73335C5.10746 60.5333 4.60001 60.0259 4.60001 59.4C4.60001 58.7741 5.10746 58.2667 5.73335 58.2667H11.7015L8.15046 28.8649H6.43573C2.92381 28.8649 0.0666809 26.0078 0.0666809 22.4958V6.83572C0.0666809 3.32381 2.92381 0.466675 6.43573 0.466675H43.687C47.1989 0.466675 50.0555 3.32381 50.0555 6.83572V22.4958C50.0555 26.0078 47.1989 28.8649 43.687 28.8649H41.4062L39.4968 44.6667H43.1467C51.8878 44.6667 59 37.555 59 28.8133V20.7644C55.789 20.2224 53.3333 17.4296 53.3333 14.0667V10.6667C53.3333 10.0408 53.8402 9.53334 54.4667 9.53334H55.6V6.13334C55.6 5.50746 56.1069 5.00001 56.7333 5.00001C57.3598 5.00001 57.8667 5.50746 57.8667 6.13334V9.53334H62.4V6.13334C62.4 5.50746 62.9069 5.00001 63.5333 5.00001C64.1598 5.00001 64.6667 5.50746 64.6667 6.13334V9.53334H65.8C66.4265 9.53334 66.9333 10.0408 66.9333 10.6667ZM6.43573 26.5982H43.687C45.948 26.5982 47.7888 24.7583 47.7888 22.4958V6.83572C47.7888 4.57359 45.9483 2.73334 43.687 2.73334H6.43573C4.17331 2.73334 2.33335 4.57331 2.33335 6.83572V22.4958C2.33335 24.758 4.17331 26.5982 6.43573 26.5982ZM35.5695 58.2667L39.1216 28.8649H10.4333L13.9846 58.2667H35.5695ZM64.6667 11.8H55.6V14.0667C55.6 16.5662 57.6332 18.6 60.1333 18.6C62.6335 18.6 64.6667 16.5662 64.6667 14.0667V11.8ZM31.5487 39.7117L20.9928 52.7949C20.7704 53.0706 20.4429 53.2165 20.1102 53.2165C19.9082 53.2165 19.7051 53.163 19.522 53.0516C19.0367 52.7561 18.8446 52.1475 19.0732 51.6273L22.1307 44.6667H19.3333C18.9095 44.6667 18.521 44.4298 18.3261 44.0535C18.1317 43.6767 18.164 43.2228 18.4091 42.8771L26.8539 30.9828C27.1777 30.5258 27.7852 30.3751 28.2881 30.6269C28.7885 30.8794 29.0296 31.4588 28.8548 31.9915L26.6799 38.6416L30.444 37.8891C30.9166 37.7956 31.3892 38.0052 31.636 38.4132C31.8827 38.8212 31.8487 39.3403 31.5487 39.7117Z" fill="#001A3B"/>
</svg>
