<svg width="42" height="59" viewBox="0 0 42 59" fill="none" xmlns="http://www.w3.org/2000/svg">
<rect x="3" y="3" width="36" height="54" rx="6" fill="#1366B9"/>
<path d="M20.6719 43.9297C19.3854 43.5599 18.4479 43.1068 17.8594 42.5703C17.276 42.0286 16.9844 41.362 16.9844 40.5703C16.9844 39.6745 17.3411 38.9349 18.0547 38.3516C18.7734 37.763 19.7057 37.4688 20.8516 37.4688C21.6328 37.4688 22.3281 37.6198 22.9375 37.9219C23.5521 38.224 24.026 38.6406 24.3594 39.1719C24.6979 39.7031 24.8672 40.2839 24.8672 40.9141H23.3594C23.3594 40.2266 23.1406 39.6875 22.7031 39.2969C22.2656 38.901 21.6484 38.7031 20.8516 38.7031C20.112 38.7031 19.5339 38.8672 19.1172 39.1953C18.7057 39.5182 18.5 39.9688 18.5 40.5469C18.5 41.0104 18.6953 41.4036 19.0859 41.7266C19.4818 42.0443 20.151 42.3359 21.0938 42.6016C22.0417 42.8672 22.7812 43.1615 23.3125 43.4844C23.849 43.8021 24.2448 44.1745 24.5 44.6016C24.7604 45.0286 24.8906 45.5312 24.8906 46.1094C24.8906 47.0312 24.5312 47.7708 23.8125 48.3281C23.0938 48.8802 22.1328 49.1562 20.9297 49.1562C20.1484 49.1562 19.4193 49.0078 18.7422 48.7109C18.0651 48.4089 17.5417 47.9974 17.1719 47.4766C16.8073 46.9557 16.625 46.3646 16.625 45.7031H18.1328C18.1328 46.3906 18.3854 46.9349 18.8906 47.3359C19.401 47.7318 20.0807 47.9297 20.9297 47.9297C21.7214 47.9297 22.3281 47.7682 22.75 47.4453C23.1719 47.1224 23.3828 46.6823 23.3828 46.125C23.3828 45.5677 23.1875 45.138 22.7969 44.8359C22.4062 44.5286 21.6979 44.2266 20.6719 43.9297Z" fill="white"/>
<path d="M21.2942 11.7181H22.4492L21.5252 12.4111L21.8822 13.5241L20.9582 12.8311L20.0342 13.5241L20.3912 12.4111L19.4462 11.7181H20.6012L20.9582 10.6471L21.2942 11.7181Z" fill="#FFEB00"/>
<path d="M21.3361 29.5472H22.4911L21.5671 30.2612L21.9241 31.3532L21.0001 30.6812L20.0761 31.3532L20.4331 30.2612L19.5091 29.5472H20.6641L21.0001 28.4762L21.3361 29.5472Z" fill="#FFEB00"/>
<path d="M25.7671 28.371H26.9221L25.9771 29.064L26.3341 30.177L25.4101 29.505L24.4861 30.177L24.8641 29.064L23.9191 28.371H25.0741L25.4101 27.3L25.7671 28.371Z" fill="#FFEB00"/>
<path d="M25.7671 12.894H26.9221L25.9771 13.587L26.3341 14.7L25.4101 14.007L24.4861 14.7L24.8641 13.587L23.9191 12.894H25.0741L25.4101 11.823L25.7671 12.894Z" fill="#FFEB00"/>
<path d="M29.043 16.1701H30.198L29.253 16.8631L29.631 17.9761L28.707 17.3041L27.762 17.9761L28.14 16.8631L27.195 16.1701H28.35L28.707 15.0991L29.043 16.1701Z" fill="#FFEB00"/>
<path d="M29.043 25.1372H30.198L29.253 25.8302L29.631 26.9432L28.707 26.2712L27.762 26.9432L28.14 25.8302L27.195 25.1372H28.35L28.707 24.0662L29.043 25.1372Z" fill="#FFEB00"/>
<path d="M30.2611 20.5802H31.4161L30.4921 21.2942L30.8491 22.3862L29.9251 21.7142L29.0011 22.3862L29.3581 21.2942L28.4341 20.5802H29.5681L29.9251 19.5092L30.2611 20.5802Z" fill="#FFEB00"/>
<path d="M16.7791 12.894H17.9341L17.0101 13.608L17.3671 14.7L16.4431 14.028L15.5191 14.7L15.8971 13.608L14.9521 12.894H16.1071L16.4431 11.823L16.7791 12.894Z" fill="#FFEB00"/>
<path d="M13.608 16.1911H14.763L13.818 16.8841L14.196 17.9761L13.272 17.3041L12.327 17.9761L12.705 16.8841L11.76 16.1911H12.915L13.272 15.0991L13.608 16.1911Z" fill="#FFEB00"/>
<path d="M12.4111 20.601H13.5661L12.6421 21.294L12.9991 22.407L12.0751 21.714L11.1511 22.407L11.5081 21.294L10.5841 20.601H11.7391L12.0751 19.53L12.4111 20.601Z" fill="#FFEB00"/>
<path d="M13.608 25.1582H14.763L13.818 25.8512L14.196 26.9642L13.272 26.2712L12.327 26.9642L12.705 25.8512L11.76 25.1582H12.915L13.272 24.0662L13.608 25.1582Z" fill="#FFEB00"/>
<path d="M16.8421 28.392H17.9971L17.0521 29.085L17.4301 30.1981L16.4851 29.5051L15.5611 30.1981L15.9391 29.085L14.9941 28.392H16.1491L16.4851 27.3L16.8421 28.392Z" fill="#FFEB00"/>
</svg>
