<svg width="67" height="67" viewBox="0 0 67 67" fill="none" xmlns="http://www.w3.org/2000/svg">
<path d="M5.14411 14.5144H7.94202L4.88401 21.4748C4.65592 21.995 4.84746 22.6036 5.33337 22.8991C5.51612 23.011 5.71956 23.064 5.92101 23.064C6.25421 23.064 6.58174 22.9178 6.80416 22.6424L17.3595 9.55917C17.6595 9.18744 17.6938 8.66809 17.447 8.25981C17.2002 7.85237 16.7265 7.63789 16.255 7.73621L12.4909 8.48874L14.6658 1.83806C14.8406 1.30567 14.5995 0.725689 14.0991 0.474655C13.5968 0.219089 12.989 0.374072 12.6649 0.829956L4.21987 12.7249C3.97422 13.0714 3.94221 13.525 4.13686 13.9013C4.33151 14.2775 4.72024 14.5144 5.14411 14.5144ZM62.8999 32.6477H58.4108V21.1274C58.4108 13.7318 52.3933 7.71439 44.9978 7.71439H36.7752C36.2331 4.50337 33.4403 2.04772 30.0774 2.04772H26.6774C26.051 2.04772 25.5441 2.55461 25.5441 3.18106V4.31439H22.1441C21.5177 4.31439 21.0108 4.82127 21.0108 5.44772C21.0108 6.07417 21.5177 6.58106 22.1441 6.58106H25.5441V11.1144H22.1441C21.5177 11.1144 21.0108 11.6213 21.0108 12.2477C21.0108 12.8742 21.5177 13.3811 22.1441 13.3811H25.5441V14.5144C25.5441 15.1408 26.051 15.6477 26.6774 15.6477H30.0774C33.4403 15.6477 36.2331 13.1921 36.7752 9.98105H44.9978C51.1436 9.98105 56.1441 14.9813 56.1441 21.1274V27.6489C53.2059 22.5506 47.7115 19.1033 41.4164 19.1033H25.5829C17.3923 19.1033 10.5382 24.9252 8.93737 32.648H4.43124C2.34931 32.648 0.654974 34.3423 0.654974 36.4243V39.448C0.654974 40.0745 1.16186 40.5813 1.78831 40.5813H6.27744V44.125C4.32386 44.6285 2.87744 46.4061 2.87744 48.5144V62.1144C2.87744 64.6145 4.91064 66.6477 7.41077 66.6477H9.67744C12.1776 66.6477 14.2108 64.6145 14.2108 62.1144H52.7441C52.7441 64.6145 54.7773 66.6477 57.2774 66.6477H59.5441C62.0442 66.6477 64.0774 64.6145 64.0774 62.1144V48.5144C64.0774 46.4061 62.631 44.6285 60.6774 44.125V40.5811H65.2108C65.8372 40.5811 66.3441 40.0742 66.3441 39.4477V36.0919C66.3441 34.1927 64.7991 32.6477 62.8999 32.6477ZM30.0774 13.3811H27.8108V4.31439H30.0774C32.5776 4.31439 34.6108 6.34759 34.6108 8.84772C34.6108 11.3479 32.5776 13.3811 30.0774 13.3811ZM25.5829 21.3699H41.4164C49.5033 21.3699 56.0846 27.9209 56.1441 35.9939V37.1811H10.8496V36.103C10.8496 27.9795 17.4592 21.3699 25.5829 21.3699ZM64.0774 38.3144H59.5441C58.9177 38.3144 58.4108 38.8213 58.4108 39.4477V45.1144C58.4108 45.7408 58.9177 46.2477 59.5441 46.2477C60.7936 46.2477 61.8108 47.2649 61.8108 48.5144V62.1144C61.8108 63.3639 60.7936 64.3811 59.5441 64.3811H57.2774C56.0279 64.3811 55.0108 63.3639 55.0108 62.1144H56.1441C56.7705 62.1144 57.2774 61.6075 57.2774 60.9811C57.2774 60.3546 56.7705 59.8477 56.1441 59.8477H53.8774H13.0774H9.67744C9.05099 59.8477 8.54411 60.3546 8.54411 60.9811C8.54411 61.6075 9.05099 62.1144 9.67744 62.1144H11.9441C11.9441 63.3639 10.9269 64.3811 9.67744 64.3811H7.41077C6.16127 64.3811 5.14411 63.3639 5.14411 62.1144V48.5144C5.14411 47.2649 6.16127 46.2477 7.41077 46.2477C8.03722 46.2477 8.54411 45.7408 8.54411 45.1144V39.4477C8.54411 38.8213 8.03722 38.3144 7.41077 38.3144H2.92164V36.424C2.92164 35.5916 3.59909 34.9144 4.43124 34.9144H8.57272L8.54382 38.3045C8.54156 38.6065 8.65999 38.8978 8.87249 39.1125C9.08499 39.3273 9.37484 39.448 9.67716 39.448H9.71597H57.2772H57.2828C57.9093 39.448 58.4161 38.9411 58.4161 38.3147V36.1033C58.4161 36.086 58.4136 36.0693 58.4136 36.052L58.415 34.9144H62.8996C63.5493 34.9144 64.0771 35.4422 64.0771 36.0919V38.3144H64.0774ZM40.2774 54.1811C40.2774 54.8075 39.7706 55.3144 39.1441 55.3144H28.9441C28.3177 55.3144 27.8108 54.8075 27.8108 54.1811C27.8108 53.5546 28.3177 53.0477 28.9441 53.0477H39.1441C39.7706 53.0477 40.2774 53.5546 40.2774 54.1811ZM57.2828 48.5144H49.3552C48.9854 48.5144 48.6392 48.6949 48.4267 48.998L44.4623 54.6647C44.22 55.0112 44.19 55.4626 44.3858 55.838C44.5807 56.2131 44.968 56.4477 45.3907 56.4477H53.3184C53.6882 56.4477 54.0344 56.2672 54.2469 55.9641L58.2113 50.2974C58.4536 49.9509 58.4836 49.4995 58.2878 49.1241C58.0932 48.749 57.7058 48.5144 57.2828 48.5144ZM19.8939 48.998C19.6825 48.6949 19.3349 48.5144 18.9654 48.5144H11.0377C10.615 48.5144 10.2277 48.749 10.0327 49.1241C9.83696 49.4981 9.86671 49.9509 10.1092 50.2974L14.0725 55.9641C14.2839 56.2672 14.6315 56.4477 15.001 56.4477H22.9287C23.3514 56.4477 23.7387 56.2131 23.9336 55.838C24.1294 55.464 24.0997 55.0112 23.8571 54.6647L19.8939 48.998ZM23.5254 34.4894C23.1346 34.0001 23.2143 33.2875 23.7024 32.8956L29.3691 28.3623C29.8593 27.9705 30.571 28.0512 30.9629 28.5394C31.3536 29.0287 31.274 29.7413 30.7858 30.1331L25.1191 34.6665C24.91 34.8336 24.6598 34.9144 24.4119 34.9144C24.0787 34.9144 23.75 34.7696 23.5254 34.4894ZM31.4499 34.4772C31.0649 33.9825 31.1544 33.2708 31.648 32.8869L41.848 24.9535C42.3438 24.5673 43.0544 24.6603 43.4383 25.1516C43.8234 25.6463 43.7338 26.358 43.2403 26.7419L33.0403 34.6753C32.8334 34.8368 32.5875 34.9144 32.3452 34.9144C32.0075 34.9144 31.6735 34.7639 31.4499 34.4772Z" fill="#001A3B"/>
</svg>
