<svg width="91" height="41" viewBox="0 0 91 41" fill="none" xmlns="http://www.w3.org/2000/svg">
<path d="M20.793 1.70333C20.793 0.900004 21.443 0.25 22.2463 0.25H35.3263C36.1296 0.25 36.7796 0.900004 36.7796 1.70333C36.7796 2.50666 36.1296 3.15667 35.3263 3.15667H22.2463C21.443 3.15667 20.793 2.50666 20.793 1.70333ZM10.6196 7.51667H30.9663C31.7696 7.51667 32.4196 6.86667 32.4196 6.06334C32.4196 5.26001 31.7696 4.61 30.9663 4.61H10.6196C9.81632 4.61 9.16632 5.26001 9.16632 6.06334C9.16632 6.86667 9.81632 7.51667 10.6196 7.51667ZM60.033 26.41H44.0463C43.243 26.41 42.593 27.06 42.593 27.8633C42.593 28.6667 43.243 29.3167 44.0463 29.3167H60.033C60.8363 29.3167 61.4863 28.6667 61.4863 27.8633C61.4863 27.06 60.8363 26.41 60.033 26.41ZM16.433 23.5033H25.153C25.9563 23.5033 26.6063 22.8533 26.6063 22.05C26.6063 21.2467 25.9563 20.5967 25.153 20.5967H16.433C15.6297 20.5967 14.9796 21.2467 14.9796 22.05C14.9796 22.8533 15.6297 23.5033 16.433 23.5033ZM42.593 20.5967C41.7896 20.5967 41.1396 19.9467 41.1396 19.1433V13.4394C41.1396 12.6687 41.7413 12.0315 42.5105 11.9889C47.2607 11.7179 47.4893 11.9363 47.9405 12.3635C48.2315 12.6389 48.406 13.039 48.406 13.4394V19.1433C48.406 19.9467 47.7559 20.5967 46.9526 20.5967H42.593ZM44.0463 17.69H45.4996V14.7848C45.0753 14.7906 44.5699 14.8048 44.0463 14.8258V17.69ZM64.7763 19.5663C64.5903 20.1781 64.0257 20.5967 63.3855 20.5967H51.289C50.4857 20.5967 49.8357 19.9467 49.8357 19.1433V13.4394C49.8357 12.6756 50.4275 12.0413 51.1898 11.9889C55.0844 11.7223 55.4165 11.945 55.8281 12.3283L64.1946 17.936C64.7265 18.2917 64.962 18.9544 64.7763 19.5663ZM58.6065 17.69L54.2749 14.7862C53.9526 14.775 53.3749 14.7877 52.742 14.8146V17.69H58.6065ZM24.4336 32.6575C24.4336 34.8005 22.6907 36.5434 20.5477 36.5434C18.4048 36.5434 16.6604 34.8005 16.6604 32.6575C16.6604 30.5146 18.4048 28.7702 20.5477 28.7702C22.6907 28.7702 24.4336 30.5142 24.4336 32.6575ZM81.1136 32.6575C81.1136 34.8005 79.3707 36.5434 77.2277 36.5434C75.0848 36.5434 73.3404 34.8005 73.3404 32.6575C73.3404 30.5146 75.0848 28.7702 77.2277 28.7702C79.3707 28.7702 81.1136 30.5142 81.1136 32.6575ZM90.549 22.0707C90.549 22.0849 90.553 22.098 90.553 22.1121V29.8442C90.553 30.8674 90.154 31.8299 89.4303 32.5536C88.7065 33.2759 87.7455 33.6734 86.7238 33.6734C86.7224 33.6734 86.7209 33.6734 86.7195 33.6734L85.2494 33.6723C84.7473 37.6559 81.345 40.7497 77.2274 40.7497C73.1024 40.7497 69.6958 37.6472 69.2013 33.6552L38.2312 33.6251L28.5778 33.6149C28.1018 37.6268 24.6846 40.7497 20.547 40.7497C16.0835 40.7497 12.453 37.1193 12.453 32.6572C12.453 32.5187 12.4668 32.3836 12.4737 32.2466L4.08764 32.3265C4.07493 32.3265 4.06366 32.3265 4.05204 32.3265C3.09538 32.3265 2.19577 31.9559 1.51452 31.282C0.82491 30.5992 0.445953 29.6895 0.445953 28.7186C0.445953 27.371 1.1599 26.1906 2.22774 25.5257C2.4937 25.1874 2.88828 24.956 3.35262 24.956H3.47034V17.6893C3.47034 16.886 4.12034 16.236 4.92367 16.236H36.7324V8.96928C36.7324 8.16595 37.3824 7.51594 38.1857 7.51594C38.1941 7.51594 38.201 7.52067 38.2094 7.52067C38.2177 7.52067 38.2243 7.51594 38.2326 7.51594H55.7693C56.4164 7.51594 57.0453 7.70197 57.5888 8.05259L70.6249 16.236H84.6772C87.8745 16.236 90.4716 18.8054 90.5403 21.9864C90.5414 22.0086 90.553 22.0268 90.553 22.0493C90.553 22.0573 90.549 22.0635 90.549 22.0707ZM84.6772 19.1433H71.6597V26.7973C73.1119 25.417 75.0699 24.5636 77.2274 24.5636C79.2094 24.5636 81.0249 25.2826 82.4336 26.47C82.5393 26.4456 82.6392 26.4057 82.7526 26.4057H87.6463V23.5033H86.193C85.3896 23.5033 84.7396 22.8533 84.7396 22.05C84.7396 21.2467 85.3896 20.5967 86.193 20.5967H87.2169C86.6976 19.7301 85.7592 19.1433 84.6772 19.1433ZM13.1753 29.3334C14.4466 26.5252 17.2694 24.5636 20.5474 24.5636C24.3366 24.5636 27.5172 27.1854 28.3928 30.7086L36.7796 30.7173V19.1433H6.37737V24.9803C7.12257 25.0431 7.71298 25.6485 7.71298 26.41C7.71298 27.2133 7.06298 27.8633 6.25965 27.8633H4.92404H4.20863C3.73594 27.8633 3.35298 28.2481 3.35298 28.719C3.35298 28.973 3.48342 29.1405 3.56008 29.2171C3.63675 29.2938 3.80279 29.4202 4.0524 29.4202H4.05967L13.1753 29.3334ZM25.7336 32.6575C25.7336 29.7977 23.4075 27.4702 20.5477 27.4702C17.6879 27.4702 15.3604 29.7977 15.3604 32.6575C15.3604 35.5173 17.6879 37.8434 20.5477 37.8434C23.4075 37.8434 25.7336 35.5173 25.7336 32.6575ZM39.6863 30.7202L68.753 30.7486V18.4926L56.029 10.504C55.9411 10.4473 55.8557 10.423 55.7693 10.423H39.6863V30.7202ZM82.4136 32.6575C82.4136 29.7977 80.0875 27.4702 77.2277 27.4702C74.3679 27.4702 72.0404 29.7977 72.0404 32.6575C72.0404 35.5173 74.3679 37.8434 77.2277 37.8434C80.0875 37.8434 82.4136 35.5173 82.4136 32.6575ZM87.6463 29.8446V29.3123H84.5878C84.7992 29.7752 84.9664 30.2613 85.0877 30.7657L86.7224 30.7667C86.9694 30.7667 87.2005 30.6701 87.3753 30.4972C87.5497 30.3228 87.6463 30.0913 87.6463 29.8446Z" fill="#001A3B"/>
</svg>
