<svg width="100" height="100" viewBox="0 0 100 100" fill="none" xmlns="http://www.w3.org/2000/svg">
<path d="M91.3335 64.0847C91.3335 61.1517 90.4305 58.427 88.8909 56.1694C88.8099 55.9684 88.6752 55.803 88.5132 55.6647C85.9419 52.2337 81.8565 50 77.2489 50H75.4689L63.6349 38.8867C61.1935 36.595 58.0059 35.3334 54.6582 35.3334H15.5309C11.7462 35.3334 8.66687 38.4127 8.66687 42.198V62.6214C8.66687 66.69 11.9775 70 16.0465 70H16.0849C17.0889 73.829 20.5695 76.6667 24.7099 76.6667C28.8499 76.6667 32.3302 73.829 33.3345 70H69.2302C70.2342 73.829 73.7149 76.6667 77.8552 76.6667C82.0355 76.6667 85.5439 73.7737 86.5085 69.888C89.3105 69.3654 91.3335 66.9534 91.3335 64.0847ZM24.7099 74C21.2585 74 18.4509 71.1927 18.4509 67.7424C18.4509 64.2907 21.2589 61.4834 24.7099 61.4834C28.1609 61.4834 30.9682 64.2907 30.9682 67.7424C30.9682 71.1927 28.1609 74 24.7099 74ZM77.8549 74C74.4035 74 71.5959 71.1927 71.5959 67.7424C71.5959 64.2907 74.4039 61.4834 77.8549 61.4834C81.3059 61.4834 84.1132 64.2907 84.1132 67.7424C84.1135 71.1927 81.3062 74 77.8549 74ZM86.7445 67.0404C86.3845 62.4464 82.5392 58.8164 77.8549 58.8164C73.0709 58.8164 69.1655 62.6017 68.9499 67.3334H33.6142C33.3985 62.602 29.4929 58.8164 24.7099 58.8164C19.9342 58.8164 16.0342 62.589 15.8059 67.309C14.0475 67.2187 12.5512 66.1694 11.8202 64.6667H12.9912C13.7275 64.6667 14.3245 64.0704 14.3245 63.3334C14.3245 62.5964 13.7275 62 12.9912 62H11.3335V42.198C11.3335 39.8827 13.2162 38 15.5309 38H54.6585C57.3252 38 59.8649 39.0054 61.8095 40.8307L74.0282 52.3047C74.2755 52.5377 74.6019 52.6667 74.9409 52.6667H77.2489C80.0415 52.6667 82.6005 53.678 84.5869 55.3494C83.8899 55.393 83.3335 55.958 83.3335 56.6667C83.3335 57.4037 83.9305 58 84.6669 58H86.8932C88.0102 59.764 88.6669 61.847 88.6669 64.0847C88.6669 65.3984 87.8912 66.5304 86.7445 67.0404ZM67.3335 59.3334C67.3335 60.0704 66.7365 60.6667 66.0002 60.6667H35.3335C34.5972 60.6667 34.0002 60.0704 34.0002 59.3334C34.0002 58.5964 34.5972 58 35.3335 58H66.0002C66.7365 58 67.3335 58.5964 67.3335 59.3334ZM46.0002 52.6667V40.694C46.0002 39.957 45.4032 39.3607 44.6669 39.3607H15.3335C14.5972 39.3607 14.0002 39.957 14.0002 40.694V52.6667C14.0002 53.4037 14.5972 54 15.3335 54H44.6669C45.4032 54 46.0002 53.4037 46.0002 52.6667ZM43.3335 51.3334H16.6669V42.0274H43.3335V51.3334ZM60.3369 41.914C58.5772 40.268 56.2815 39.3607 53.8725 39.3607H50.0002C49.2639 39.3607 48.6669 39.957 48.6669 40.694V52.6667C48.6669 53.4037 49.2639 54 50.0002 54H69.8692C70.4169 54 70.9082 53.6654 71.1095 53.1564C71.3109 52.6474 71.1799 52.0677 70.7809 51.694L60.3369 41.914ZM51.3335 51.3334V42.0274H53.8725C55.6022 42.0274 57.2509 42.6784 58.5139 43.8607L66.4942 51.3334H51.3335ZM24.7099 63.1874C22.1982 63.1874 20.1552 65.2304 20.1552 67.742C20.1552 70.2537 22.1982 72.2967 24.7099 72.2967C27.2215 72.2967 29.2645 70.2537 29.2645 67.742C29.2645 65.2304 27.2215 63.1874 24.7099 63.1874ZM77.8549 63.1874C75.3432 63.1874 73.3002 65.2304 73.3002 67.742C73.3002 70.2537 75.3432 72.2967 77.8549 72.2967C80.3665 72.2967 82.4095 70.2537 82.4095 67.742C82.4095 65.2304 80.3669 63.1874 77.8549 63.1874ZM32.6669 24.6667C32.6669 23.9297 33.2639 23.3334 34.0002 23.3334H46.0002C46.7365 23.3334 47.3335 23.9297 47.3335 24.6667C47.3335 25.4037 46.7365 26 46.0002 26H34.0002C33.2639 26 32.6669 25.4037 32.6669 24.6667ZM22.0002 28.6667C22.0002 27.9297 22.5972 27.3334 23.3335 27.3334H42.0002C42.7365 27.3334 43.3335 27.9297 43.3335 28.6667C43.3335 29.4037 42.7365 30 42.0002 30H23.3335C22.5972 30 22.0002 29.4037 22.0002 28.6667Z" fill="#001A3B"/>
</svg>
